# xmcd
#
# Track frame offsets:
#	150
#	13575
#	31846
#	45108
#	57484
#	73485
#	88304
#	103546
#	120088
#	134895
#	139241
#	154816
#	168411
#	177909
#	192834
#	207753
#	224951
#	237768
#	242102
#	254997
#	268990
#	281532
#	288803
#
# Disc length: 4039 seconds
#
# Revision: 0
# Processed by: cddbd v1.5.1PL0 Copyright (c) Steve Scherf et al.
# Submitted via: dBpowerAMP V4.0
#
DISCID=680fc517
DTITLE=Merle Haggard - Same Train, Different Time
DYEAR=1969
DGENRE=Country
TTITLE0=California Blues
TTITLE1=Hobo's Meditation
TTITLE2=Waitin' For A Train
TTITLE3=Mother, The Queen Of My Heart
TTITLE4=My Carolina Sunshine Girl
TTITLE5=Train Whistle Blues
TTITLE6=Why Should I Be Lonely
TTITLE7=Jimmie's Texas Blues
TTITLE8=Blue Yodel #6
TTITLE9=Narration #1-Intro: Mule Skinner Blues
TTITLE10=Mule Skinner Blues
TTITLE11=Peach Pickin' Time In Georgia
TTITLE12=Down The Old Road Home
TTITLE13=Travelin' Blues
TTITLE14=Miss The Mississippi
TTITLE15=Frankie And Johnny
TTITLE16=No Hard Times
TTITLE17=Narration #2-Intro: Hobo Bill's Last Ride
TTITLE18=Hobo Bill's Last Ride
TTITLE19=My Old Pal
TTITLE20=Nobody Knows But Me
TTITLE21=Narration #3-Intro: Jimmie's Last 12 Songs
TTITLE22=Women Make A Fool Out Of Me
EXTD=+Sound Man+
EXTT0=
EXTT1=
EXTT2=
EXTT3=
EXTT4=
EXTT5=
EXTT6=
EXTT7=
EXTT8=
EXTT9=
EXTT10=
EXTT11=
EXTT12=
EXTT13=
EXTT14=
EXTT15=
EXTT16=
EXTT17=
EXTT18=
EXTT19=
EXTT20=
EXTT21=
EXTT22=
PLAYORDER=
